<svg width="413" height="94" viewBox="0 0 413 94" fill="none" xmlns="http://www.w3.org/2000/svg">
<rect width="413" height="94" fill="#0F0823"/>
<path d="M81.0843 35.852C82.991 35.852 84.6637 36.2247 86.1023 36.97C87.5583 37.7153 88.6763 38.7813 89.4563 40.168C90.2537 41.5373 90.6523 43.132 90.6523 44.952C90.6523 46.772 90.2537 48.3667 89.4563 49.736C88.6763 51.088 87.5583 52.1367 86.1023 52.882C84.6637 53.6273 82.991 54 81.0843 54H74.7403V35.852H81.0843ZM80.9543 50.906C82.861 50.906 84.3343 50.386 85.3743 49.346C86.4143 48.306 86.9343 46.8413 86.9343 44.952C86.9343 43.0627 86.4143 41.5893 85.3743 40.532C84.3343 39.4573 82.861 38.92 80.9543 38.92H78.3803V50.906H80.9543ZM91.9211 46.746C91.9211 45.29 92.2071 43.9987 92.7791 42.872C93.3684 41.7453 94.1571 40.8787 95.1451 40.272C96.1504 39.6653 97.2684 39.362 98.4991 39.362C99.5737 39.362 100.51 39.5787 101.307 40.012C102.122 40.4453 102.772 40.9913 103.257 41.65V39.596H106.923V54H103.257V51.894C102.789 52.57 102.139 53.1333 101.307 53.584C100.492 54.0173 99.5477 54.234 98.4731 54.234C97.2597 54.234 96.1504 53.922 95.1451 53.298C94.1571 52.674 93.3684 51.7987 92.7791 50.672C92.2071 49.528 91.9211 48.2193 91.9211 46.746ZM103.257 46.798C103.257 45.914 103.084 45.16 102.737 44.536C102.39 43.8947 101.922 43.4093 101.333 43.08C100.744 42.7333 100.111 42.56 99.4351 42.56C98.7591 42.56 98.1351 42.7247 97.5631 43.054C96.9911 43.3833 96.5231 43.8687 96.1591 44.51C95.8124 45.134 95.6391 45.8793 95.6391 46.746C95.6391 47.6127 95.8124 48.3753 96.1591 49.034C96.5231 49.6753 96.9911 50.1693 97.5631 50.516C98.1524 50.8627 98.7764 51.036 99.4351 51.036C100.111 51.036 100.744 50.8713 101.333 50.542C101.922 50.1953 102.39 49.71 102.737 49.086C103.084 48.4447 103.257 47.682 103.257 46.798ZM117.94 39.388C119.656 39.388 121.043 39.934 122.1 41.026C123.157 42.1007 123.686 43.6087 123.686 45.55V54H120.046V46.044C120.046 44.9 119.76 44.0247 119.188 43.418C118.616 42.794 117.836 42.482 116.848 42.482C115.843 42.482 115.045 42.794 114.456 43.418C113.884 44.0247 113.598 44.9 113.598 46.044V54H109.958V39.596H113.598V41.39C114.083 40.766 114.699 40.2807 115.444 39.934C116.207 39.57 117.039 39.388 117.94 39.388ZM128.474 37.88C127.832 37.88 127.295 37.6807 126.862 37.282C126.446 36.866 126.238 36.3547 126.238 35.748C126.238 35.1413 126.446 34.6387 126.862 34.24C127.295 33.824 127.832 33.616 128.474 33.616C129.115 33.616 129.644 33.824 130.06 34.24C130.493 34.6387 130.71 35.1413 130.71 35.748C130.71 36.3547 130.493 36.866 130.06 37.282C129.644 37.6807 129.115 37.88 128.474 37.88ZM130.268 39.596V54H126.628V39.596H130.268ZM146.734 46.486C146.734 47.006 146.699 47.474 146.63 47.89H136.1C136.187 48.93 136.551 49.7447 137.192 50.334C137.833 50.9233 138.622 51.218 139.558 51.218C140.91 51.218 141.872 50.6373 142.444 49.476H146.37C145.954 50.8627 145.157 52.0067 143.978 52.908C142.799 53.792 141.352 54.234 139.636 54.234C138.249 54.234 137.001 53.9307 135.892 53.324C134.8 52.7 133.942 51.8247 133.318 50.698C132.711 49.5713 132.408 48.2713 132.408 46.798C132.408 45.3073 132.711 43.9987 133.318 42.872C133.925 41.7453 134.774 40.8787 135.866 40.272C136.958 39.6653 138.215 39.362 139.636 39.362C141.005 39.362 142.227 39.6567 143.302 40.246C144.394 40.8353 145.235 41.676 145.824 42.768C146.431 43.8427 146.734 45.082 146.734 46.486ZM142.964 45.446C142.947 44.51 142.609 43.7647 141.95 43.21C141.291 42.638 140.485 42.352 139.532 42.352C138.631 42.352 137.868 42.6293 137.244 43.184C136.637 43.7213 136.265 44.4753 136.126 45.446H142.964ZM152.511 34.76V54H148.871V34.76H152.511ZM164.902 51.114H170.882V54H161.262V35.852H164.902V51.114ZM171.74 46.746C171.74 45.29 172.026 43.9987 172.598 42.872C173.187 41.7453 173.976 40.8787 174.964 40.272C175.969 39.6653 177.087 39.362 178.318 39.362C179.393 39.362 180.329 39.5787 181.126 40.012C181.941 40.4453 182.591 40.9913 183.076 41.65V39.596H186.742V54H183.076V51.894C182.608 52.57 181.958 53.1333 181.126 53.584C180.311 54.0173 179.367 54.234 178.292 54.234C177.079 54.234 175.969 53.922 174.964 53.298C173.976 52.674 173.187 51.7987 172.598 50.672C172.026 49.528 171.74 48.2193 171.74 46.746ZM183.076 46.798C183.076 45.914 182.903 45.16 182.556 44.536C182.209 43.8947 181.741 43.4093 181.152 43.08C180.563 42.7333 179.93 42.56 179.254 42.56C178.578 42.56 177.954 42.7247 177.382 43.054C176.81 43.3833 176.342 43.8687 175.978 44.51C175.631 45.134 175.458 45.8793 175.458 46.746C175.458 47.6127 175.631 48.3753 175.978 49.034C176.342 49.6753 176.81 50.1693 177.382 50.516C177.971 50.8627 178.595 51.036 179.254 51.036C179.93 51.036 180.563 50.8713 181.152 50.542C181.741 50.1953 182.209 49.71 182.556 49.086C182.903 48.4447 183.076 47.682 183.076 46.798ZM195.419 39.362C196.494 39.362 197.438 39.5787 198.253 40.012C199.068 40.428 199.709 40.974 200.177 41.65V39.596H203.843V54.104C203.843 55.4387 203.574 56.626 203.037 57.666C202.5 58.7233 201.694 59.5553 200.619 60.162C199.544 60.786 198.244 61.098 196.719 61.098C194.674 61.098 192.992 60.6213 191.675 59.668C190.375 58.7147 189.638 57.4147 189.465 55.768H193.079C193.27 56.4267 193.677 56.9467 194.301 57.328C194.942 57.7267 195.714 57.926 196.615 57.926C197.672 57.926 198.53 57.6053 199.189 56.964C199.848 56.34 200.177 55.3867 200.177 54.104V51.868C199.709 52.544 199.059 53.1073 198.227 53.558C197.412 54.0087 196.476 54.234 195.419 54.234C194.206 54.234 193.096 53.922 192.091 53.298C191.086 52.674 190.288 51.7987 189.699 50.672C189.127 49.528 188.841 48.2193 188.841 46.746C188.841 45.29 189.127 43.9987 189.699 42.872C190.288 41.7453 191.077 40.8787 192.065 40.272C193.07 39.6653 194.188 39.362 195.419 39.362ZM200.177 46.798C200.177 45.914 200.004 45.16 199.657 44.536C199.31 43.8947 198.842 43.4093 198.253 43.08C197.664 42.7333 197.031 42.56 196.355 42.56C195.679 42.56 195.055 42.7247 194.483 43.054C193.911 43.3833 193.443 43.8687 193.079 44.51C192.732 45.134 192.559 45.8793 192.559 46.746C192.559 47.6127 192.732 48.3753 193.079 49.034C193.443 49.6753 193.911 50.1693 194.483 50.516C195.072 50.8627 195.696 51.036 196.355 51.036C197.031 51.036 197.664 50.8713 198.253 50.542C198.842 50.1953 199.31 49.71 199.657 49.086C200.004 48.4447 200.177 47.682 200.177 46.798ZM213.274 54.234C211.888 54.234 210.64 53.9307 209.53 53.324C208.421 52.7 207.546 51.8247 206.904 50.698C206.28 49.5713 205.968 48.2713 205.968 46.798C205.968 45.3247 206.289 44.0247 206.93 42.898C207.589 41.7713 208.482 40.9047 209.608 40.298C210.735 39.674 211.992 39.362 213.378 39.362C214.765 39.362 216.022 39.674 217.148 40.298C218.275 40.9047 219.159 41.7713 219.8 42.898C220.459 44.0247 220.788 45.3247 220.788 46.798C220.788 48.2713 220.45 49.5713 219.774 50.698C219.116 51.8247 218.214 52.7 217.07 53.324C215.944 53.9307 214.678 54.234 213.274 54.234ZM213.274 51.062C213.933 51.062 214.548 50.906 215.12 50.594C215.71 50.2647 216.178 49.7793 216.524 49.138C216.871 48.4967 217.044 47.7167 217.044 46.798C217.044 45.4287 216.68 44.38 215.952 43.652C215.242 42.9067 214.366 42.534 213.326 42.534C212.286 42.534 211.411 42.9067 210.7 43.652C210.007 44.38 209.66 45.4287 209.66 46.798C209.66 48.1673 209.998 49.2247 210.674 49.97C211.368 50.698 212.234 51.062 213.274 51.062ZM228.45 54.234C227.272 54.234 226.214 54.026 225.278 53.61C224.342 53.1767 223.597 52.596 223.042 51.868C222.505 51.14 222.21 50.334 222.158 49.45H225.824C225.894 50.0047 226.162 50.464 226.63 50.828C227.116 51.192 227.714 51.374 228.424 51.374C229.118 51.374 229.655 51.2353 230.036 50.958C230.435 50.6807 230.634 50.3253 230.634 49.892C230.634 49.424 230.392 49.0773 229.906 48.852C229.438 48.6093 228.684 48.3493 227.644 48.072C226.57 47.812 225.686 47.5433 224.992 47.266C224.316 46.9887 223.727 46.564 223.224 45.992C222.739 45.42 222.496 44.6487 222.496 43.678C222.496 42.8807 222.722 42.1527 223.172 41.494C223.64 40.8353 224.299 40.3153 225.148 39.934C226.015 39.5527 227.029 39.362 228.19 39.362C229.906 39.362 231.276 39.7953 232.298 40.662C233.321 41.5113 233.884 42.664 233.988 44.12H230.504C230.452 43.548 230.21 43.0973 229.776 42.768C229.36 42.4213 228.797 42.248 228.086 42.248C227.428 42.248 226.916 42.3693 226.552 42.612C226.206 42.8547 226.032 43.1927 226.032 43.626C226.032 44.1113 226.275 44.484 226.76 44.744C227.246 44.9867 228 45.238 229.022 45.498C230.062 45.758 230.92 46.0267 231.596 46.304C232.272 46.5813 232.853 47.0147 233.338 47.604C233.841 48.176 234.101 48.9387 234.118 49.892C234.118 50.724 233.884 51.4693 233.416 52.128C232.966 52.7867 232.307 53.3067 231.44 53.688C230.591 54.052 229.594 54.234 228.45 54.234ZM254.17 41.052C254.17 42.612 253.658 43.8687 252.636 44.822C251.613 45.7753 250.079 46.252 248.034 46.252H244.368V54H242.548V35.826H248.034C250.062 35.826 251.587 36.3027 252.61 37.256C253.65 38.2093 254.17 39.4747 254.17 41.052ZM248.034 44.692C250.876 44.692 252.298 43.4787 252.298 41.052C252.298 39.8387 251.96 38.92 251.284 38.296C250.608 37.672 249.524 37.36 248.034 37.36H244.368V44.692H248.034ZM258.523 42.326C258.922 41.442 259.529 40.7573 260.343 40.272C261.175 39.7867 262.189 39.544 263.385 39.544V41.442H262.891C261.574 41.442 260.517 41.7973 259.719 42.508C258.922 43.2187 258.523 44.406 258.523 46.07V54H256.703V39.804H258.523V42.326ZM271.817 54.208C270.483 54.208 269.278 53.9133 268.203 53.324C267.146 52.7173 266.305 51.868 265.681 50.776C265.075 49.6667 264.771 48.3753 264.771 46.902C264.771 45.4287 265.083 44.146 265.707 43.054C266.331 41.9447 267.181 41.0953 268.255 40.506C269.33 39.8993 270.535 39.596 271.869 39.596C273.204 39.596 274.409 39.8993 275.483 40.506C276.575 41.0953 277.425 41.9447 278.031 43.054C278.655 44.146 278.967 45.4287 278.967 46.902C278.967 48.358 278.655 49.6407 278.031 50.75C277.407 51.8593 276.549 52.7173 275.457 53.324C274.365 53.9133 273.152 54.208 271.817 54.208ZM271.817 52.622C272.753 52.622 273.62 52.414 274.417 51.998C275.215 51.5647 275.856 50.9233 276.341 50.074C276.844 49.2073 277.095 48.15 277.095 46.902C277.095 45.654 276.853 44.6053 276.367 43.756C275.882 42.8893 275.241 42.248 274.443 41.832C273.646 41.3987 272.779 41.182 271.843 41.182C270.907 41.182 270.041 41.3987 269.243 41.832C268.446 42.248 267.805 42.8893 267.319 43.756C266.851 44.6053 266.617 45.654 266.617 46.902C266.617 48.15 266.851 49.2073 267.319 50.074C267.805 50.9233 268.437 51.5647 269.217 51.998C270.015 52.414 270.881 52.622 271.817 52.622ZM284.131 41.338V50.152C284.131 51.0187 284.296 51.6167 284.625 51.946C284.954 52.2753 285.535 52.44 286.367 52.44H288.031V54H286.081C284.798 54 283.845 53.7053 283.221 53.116C282.597 52.5093 282.285 51.5213 282.285 50.152V41.338H280.309V39.804H282.285V36.242H284.131V39.804H288.031V41.338H284.131ZM296.103 41.338H292.801V54H290.981V41.338H289.005V39.804H290.981V38.816C290.981 37.2733 291.371 36.138 292.151 35.41C292.948 34.682 294.231 34.318 295.999 34.318V35.878C294.82 35.878 293.988 36.1033 293.503 36.554C293.035 37.0047 292.801 37.7587 292.801 38.816V39.804H296.103V41.338ZM304.662 54.208C303.327 54.208 302.122 53.9133 301.048 53.324C299.99 52.7173 299.15 51.868 298.526 50.776C297.919 49.6667 297.616 48.3753 297.616 46.902C297.616 45.4287 297.928 44.146 298.552 43.054C299.176 41.9447 300.025 41.0953 301.1 40.506C302.174 39.8993 303.379 39.596 304.714 39.596C306.048 39.596 307.253 39.8993 308.328 40.506C309.42 41.0953 310.269 41.9447 310.876 43.054C311.5 44.146 311.812 45.4287 311.812 46.902C311.812 48.358 311.5 49.6407 310.876 50.75C310.252 51.8593 309.394 52.7173 308.302 53.324C307.21 53.9133 305.996 54.208 304.662 54.208ZM304.662 52.622C305.598 52.622 306.464 52.414 307.262 51.998C308.059 51.5647 308.7 50.9233 309.186 50.074C309.688 49.2073 309.94 48.15 309.94 46.902C309.94 45.654 309.697 44.6053 309.212 43.756C308.726 42.8893 308.085 42.248 307.288 41.832C306.49 41.3987 305.624 41.182 304.688 41.182C303.752 41.182 302.885 41.3987 302.088 41.832C301.29 42.248 300.649 42.8893 300.164 43.756C299.696 44.6053 299.462 45.654 299.462 46.902C299.462 48.15 299.696 49.2073 300.164 50.074C300.649 50.9233 301.282 51.5647 302.062 51.998C302.859 52.414 303.726 52.622 304.662 52.622ZM316.429 34.76V54H314.609V34.76H316.429ZM320.941 37.126C320.577 37.126 320.265 36.996 320.005 36.736C319.745 36.476 319.615 36.1553 319.615 35.774C319.615 35.3927 319.745 35.0807 320.005 34.838C320.265 34.578 320.577 34.448 320.941 34.448C321.305 34.448 321.617 34.578 321.877 34.838C322.137 35.0807 322.267 35.3927 322.267 35.774C322.267 36.1553 322.137 36.476 321.877 36.736C321.617 36.996 321.305 37.126 320.941 37.126ZM321.851 39.804V54H320.031V39.804H321.851ZM331.666 54.208C330.331 54.208 329.127 53.9133 328.052 53.324C326.995 52.7173 326.154 51.868 325.53 50.776C324.923 49.6667 324.62 48.3753 324.62 46.902C324.62 45.4287 324.932 44.146 325.556 43.054C326.18 41.9447 327.029 41.0953 328.104 40.506C329.179 39.8993 330.383 39.596 331.718 39.596C333.053 39.596 334.257 39.8993 335.332 40.506C336.424 41.0953 337.273 41.9447 337.88 43.054C338.504 44.146 338.816 45.4287 338.816 46.902C338.816 48.358 338.504 49.6407 337.88 50.75C337.256 51.8593 336.398 52.7173 335.306 53.324C334.214 53.9133 333.001 54.208 331.666 54.208ZM331.666 52.622C332.602 52.622 333.469 52.414 334.266 51.998C335.063 51.5647 335.705 50.9233 336.19 50.074C336.693 49.2073 336.944 48.15 336.944 46.902C336.944 45.654 336.701 44.6053 336.216 43.756C335.731 42.8893 335.089 42.248 334.292 41.832C333.495 41.3987 332.628 41.182 331.692 41.182C330.756 41.182 329.889 41.3987 329.092 41.832C328.295 42.248 327.653 42.8893 327.168 43.756C326.7 44.6053 326.466 45.654 326.466 46.902C326.466 48.15 326.7 49.2073 327.168 50.074C327.653 50.9233 328.286 51.5647 329.066 51.998C329.863 52.414 330.73 52.622 331.666 52.622Z" fill="white"/>
</svg>
